# xmcd
#
# Track frame offsets:
#	150
#	21985
#	43845
#	71610
#	92941
#	117929
#	137034
#	158309
#	177134
#	198914
#	223968
#	244769
#	263686
#	285504
#	305288
#	323672
#	339715
#
# Disc length: 4766 seconds
#
# Revision: 0
# Processed by: cddbd v1.5.2PL0 Copyright (c) Steve Scherf et al.
# Submitted via: dBpowerAMP V4.0
#
DISCID=f4129c11
DTITLE=CELINE DION - Surrender
DYEAR=2004
DGENRE=Blues
TTITLE0=only one road
TTITLE1=I surrender
TTITLE2=CALL THE MAN
TTITLE3=TO LUV U MORN
TTITLE4=I'M UR ANGEL/ R-KELLLY
TTITLE5=IMMORTALILY
TTITLE6=MY HEART WILL GO ON
TTITLE7=LUV DOESNT ASK WHY
TTITLE8=THINK TWICE
TTITLE9=IT'S ALL COMING BANK TO ME
TTITLE10=BECAUSE U LUV ME
TTITLE11=HAVE U EVER BEEN IN LUV
TTITLE12=THE POWER OF LUV
TTITLE13=A NEW DAY HAS COME
TTITLE14=THAT'S THE WAY IT IS
TTITLE15=I'M ALIVE
TTITLE16=TAKING CHANCES
EXTD=CELINE DION
EXTT0=
EXTT1=
EXTT2=
EXTT3=
EXTT4=
EXTT5=
EXTT6=
EXTT7=
EXTT8=
EXTT9=
EXTT10=
EXTT11=
EXTT12=
EXTT13=
EXTT14=
EXTT15=
EXTT16=
PLAYORDER=
